<svg width="33" height="30" viewBox="0 0 33 30" fill="none" xmlns="http://www.w3.org/2000/svg">
<path d="M26.125 0H6.875C5.05231 0.00216526 3.30489 0.721203 2.01605 1.99939C0.727213 3.27758 0.0021833 5.01055 0 6.81818L0 23.1818C0.0021833 24.9894 0.727213 26.7224 2.01605 28.0006C3.30489 29.2788 5.05231 29.9978 6.875 30H26.125C27.9477 29.9978 29.6951 29.2788 30.9839 28.0006C32.2728 26.7224 32.9978 24.9894 33 23.1818V6.81818C32.9978 5.01055 32.2728 3.27758 30.9839 1.99939C29.6951 0.721203 27.9477 0.00216526 26.125 0ZM6.875 2.72727H26.125C26.9483 2.72888 27.7523 2.97479 28.4336 3.43337C29.1148 3.89195 29.642 4.5422 29.9475 5.30045L19.4177 15.7445C18.6428 16.51 17.5937 16.9397 16.5 16.9397C15.4063 16.9397 14.3572 16.51 13.5823 15.7445L3.0525 5.30045C3.35795 4.5422 3.88522 3.89195 4.56644 3.43337C5.24766 2.97479 6.05167 2.72888 6.875 2.72727ZM26.125 27.2727H6.875C5.78098 27.2727 4.73177 26.8417 3.95818 26.0745C3.1846 25.3073 2.75 24.2668 2.75 23.1818V8.86364L11.638 17.6727C12.9286 18.9494 14.6771 19.6664 16.5 19.6664C18.3229 19.6664 20.0714 18.9494 21.362 17.6727L30.25 8.86364V23.1818C30.25 24.2668 29.8154 25.3073 29.0418 26.0745C28.2682 26.8417 27.219 27.2727 26.125 27.2727Z" fill="#2C2C2C"/>
</svg>
