<svg width="33" height="34" viewBox="0 0 33 34" fill="none" xmlns="http://www.w3.org/2000/svg">
<g clip-path="url(#clip0_35_1789)">
<path d="M31.0795 5.77369C30.6947 5.31178 30.2128 4.94029 29.6681 4.68559C29.1235 4.43089 28.5295 4.29923 27.9282 4.29996H5.80458L5.74711 3.81967C5.6295 2.82134 5.14966 1.90086 4.39858 1.23276C3.64749 0.564648 2.67737 0.195353 1.67214 0.194885L1.36836 0.194885C1.00545 0.194885 0.6574 0.339051 0.400783 0.595668C0.144166 0.852286 0 1.20033 0 1.56324C0 1.92616 0.144166 2.2742 0.400783 2.53082C0.6574 2.78744 1.00545 2.9316 1.36836 2.9316H1.67214C2.00729 2.93165 2.33078 3.0547 2.58124 3.27741C2.83169 3.50012 2.9917 3.80701 3.03092 4.13987L4.91378 20.1497C5.10925 21.8147 5.90923 23.35 7.16187 24.4641C8.41451 25.5783 10.0326 26.1938 11.7091 26.1937H25.9988C26.3617 26.1937 26.7098 26.0496 26.9664 25.7929C27.223 25.5363 27.3672 25.1883 27.3672 24.8254C27.3672 24.4624 27.223 24.1144 26.9664 23.8578C26.7098 23.6012 26.3617 23.457 25.9988 23.457H11.7091C10.8621 23.4546 10.0366 23.1903 9.34581 22.7004C8.65497 22.2104 8.13259 21.5188 7.85028 20.7203H24.1611C25.7652 20.7204 27.3184 20.1568 28.5492 19.1281C29.78 18.0994 30.6102 16.6709 30.8948 15.0922L31.969 9.13438C32.0762 8.54326 32.0521 7.93579 31.8984 7.35501C31.7447 6.77424 31.4651 6.23438 31.0795 5.77369ZM29.2829 8.64861L28.2074 14.6064C28.0365 15.5547 27.5375 16.4127 26.7978 17.0301C26.058 17.6475 25.1247 17.985 24.1611 17.9836H7.41514L6.12751 7.03668H27.9282C28.1292 7.03548 28.328 7.07858 28.5105 7.16292C28.693 7.24726 28.8546 7.37076 28.9839 7.52465C29.1133 7.67854 29.2071 7.85903 29.2588 8.05329C29.3104 8.24755 29.3187 8.45081 29.2829 8.64861Z" fill="#2C2C2C"/>
<path d="M9.57852 33.0355C11.09 33.0355 12.3152 31.8102 12.3152 30.2988C12.3152 28.7873 11.09 27.5621 9.57852 27.5621C8.06707 27.5621 6.8418 28.7873 6.8418 30.2988C6.8418 31.8102 8.06707 33.0355 9.57852 33.0355Z" fill="#2C2C2C"/>
<path d="M23.2621 33.0355C24.7736 33.0355 25.9988 31.8102 25.9988 30.2988C25.9988 28.7873 24.7736 27.5621 23.2621 27.5621C21.7507 27.5621 20.5254 28.7873 20.5254 30.2988C20.5254 31.8102 21.7507 33.0355 23.2621 33.0355Z" fill="#2C2C2C"/>
</g>
<defs>
<clipPath id="clip0_35_1789">
<rect width="32.8406" height="32.8406" fill="white" transform="translate(0 0.194885)"/>
</clipPath>
</defs>
</svg>
